<?xml version="1.0" encoding="UTF-8"?>
<svg viewBox="0 0 32 32" version="1.1" xmlns="http://www.w3.org/2000/svg">
    <g fill="#CDC7C4" fill-rule="nonzero">
        <path d="M32,16 C32,24.8366 24.837,32 16,32 C7.163,32 0,24.8366 0,16 C0,7.16344 7.163,0 16,0 C24.837,0 32,7.16344 32,16 Z M16.011,16.2693 C18.428,16.2693 20.403,14.3083 20.403,11.8777 C20.389,9.46101 18.428,7.5 16.011,7.5 C13.595,7.5 11.62,9.46101 11.62,11.8916 C11.62,14.3083 13.581,16.2693 16.011,16.2693 Z M16.011,10.0686 C17.019,10.0686 17.834,10.8834 17.834,11.8916 C17.834,12.8859 17.019,13.7007 16.011,13.7007 C15.017,13.7007 14.188,12.8859 14.188,11.8916 C14.188,10.8834 15.003,10.0686 16.011,10.0686 Z M17.779,19.846 C18.677,19.6388 19.533,19.2936 20.32,18.7964 C20.914,18.4235 21.107,17.6226 20.72,17.0287 C20.348,16.4211 19.547,16.2416 18.953,16.6282 C17.157,17.7607 14.837,17.7607 13.042,16.6282 C12.448,16.2416 11.661,16.4211 11.274,17.0287 C10.902,17.6226 11.081,18.4235 11.675,18.7964 C12.462,19.2936 13.332,19.6526 14.216,19.846 L11.772,22.3041 C11.274,22.8013 11.274,23.6161 11.772,24.127 C12.02,24.3756 12.352,24.4999 12.683,24.4999 C13.015,24.4999 13.346,24.3756 13.595,24.127 L15.997,21.7103 L18.414,24.127 C18.911,24.6242 19.726,24.6242 20.237,24.127 C20.734,23.6299 20.734,22.8151 20.237,22.3041 L17.779,19.846 Z"></path>
    </g>
</svg>
