<?xml version="1.0" encoding="UTF-8"?>
<svg viewBox="0 0 32 32" version="1.1" xmlns="http://www.w3.org/2000/svg">
    <g fill="#CDC7C4" fill-rule="nonzero">
        <path d="M16,32 C7.1634,32 0,24.8366 0,16 C0,7.16344 7.1634,0 16,0 C24.837,0 32,7.16344 32,16 C32,24.8366 24.837,32 16,32 Z M12,9 C10.3431,9 9,10.3431 9,12 L9,20 C9,21.6569 10.3431,23 12,23 L20,23 C21.657,23 23,21.6569 23,20 L23,12 C23,10.3431 21.657,9 20,9 L12,9 Z M16,19 C14.3431,19 13,17.6569 13,16 C13,14.3431 14.3431,13 16,13 C17.6569,13 19,14.3431 19,16 C19,17.6569 17.6569,19 16,19 Z M19,12 C19,11.4477 19.4477,11 20,11 C20.552,11 21,11.4477 21,12 C21,12.5523 20.552,13 20,13 C19.4477,13 19,12.5523 19,12 Z"></path>
    </g>
</svg>
