<?xml version="1.0" encoding="UTF-8"?>
<svg viewBox="0 0 32 32" version="1.1" xmlns="http://www.w3.org/2000/svg">
    <g fill="#CDC7C4" fill-rule="nonzero">
        <path d="M16,32 C24.8366,32 32,24.8366 32,16 C32,7.16344 24.8366,0 16,0 C7.1634,0 0,7.16344 0,16 C0,24.8366 7.1634,32 16,32 Z M23.8522,19.917 C23.8701,19.9474 23.8893,19.9854 23.9098,20.0311 C23.9304,20.0767 23.9511,20.1574 23.9721,20.2728 C23.9926,20.3885 23.9913,20.492 23.9676,20.5833 C23.9439,20.6744 23.8702,20.7582 23.7463,20.8342 C23.6226,20.9101 23.4482,20.9484 23.2241,20.9484 L20.9583,20.9848 C20.8164,21.0152 20.6513,21 20.4627,20.9392 C20.2739,20.8784 20.1205,20.8114 20.0023,20.7384 L19.8253,20.6289 C19.6484,20.5009 19.4419,20.3064 19.2058,20.0448 C18.9698,19.7832 18.7677,19.5476 18.5995,19.3376 C18.4312,19.1278 18.2513,18.9513 18.0595,18.8083 C17.8676,18.6652 17.7009,18.6181 17.5593,18.6668 C17.5416,18.673 17.5181,18.6834 17.4887,18.6987 C17.4592,18.7139 17.4087,18.7581 17.338,18.8311 C17.2674,18.9039 17.204,18.9937 17.1478,19.1001 C17.0915,19.2067 17.0413,19.3649 16.9971,19.5747 C16.953,19.7845 16.9337,20.0203 16.9397,20.2818 C16.9397,20.3729 16.9294,20.4567 16.9087,20.5328 C16.8883,20.6087 16.8661,20.6651 16.8424,20.7014 L16.8072,20.7471 C16.7009,20.8626 16.5445,20.9296 16.338,20.948 L15.3201,20.948 C14.9012,20.9721 14.4704,20.922 14.0279,20.7972 C13.5853,20.6725 13.1973,20.5113 12.8639,20.3137 C12.5305,20.1159 12.2266,19.9151 11.9522,19.7112 C11.6778,19.5075 11.4698,19.3326 11.3282,19.1865 L11.1069,18.9676 C11.0479,18.9067 10.9667,18.8156 10.8634,18.6938 C10.7602,18.5722 10.5493,18.2954 10.2306,17.8634 C9.912,17.4316 9.5992,16.9722 9.2924,16.4854 C8.9856,15.999 8.6241,15.357 8.2082,14.56 C7.7922,13.7631 7.4072,12.9357 7.0531,12.0778 C7.0177,11.9806 7,11.8984 7,11.8315 C7,11.7645 7.0089,11.7159 7.0266,11.6854 L7.0621,11.6307 C7.1506,11.5151 7.3188,11.4572 7.5666,11.4572 L9.9918,11.4391 C10.0627,11.4512 10.1304,11.4709 10.1954,11.4984 C10.2603,11.5258 10.3075,11.5516 10.337,11.5759 L10.3813,11.6034 C10.4757,11.6703 10.5465,11.7676 10.5937,11.8953 C10.7116,12.1995 10.8473,12.5144 11.0008,12.84 C11.1543,13.1654 11.2752,13.4133 11.3637,13.5836 L11.5053,13.8484 C11.6764,14.2134 11.8416,14.5297 12.0009,14.7974 C12.1603,15.065 12.3034,15.2734 12.4303,15.4225 C12.5572,15.5716 12.6796,15.6886 12.7975,15.7738 C12.9155,15.859 13.0158,15.9017 13.0985,15.9017 C13.181,15.9017 13.2608,15.8862 13.3375,15.8559 C13.3492,15.8499 13.364,15.8346 13.3817,15.8103 C13.3994,15.786 13.4348,15.7191 13.4879,15.6096 C13.541,15.5001 13.5808,15.3572 13.6075,15.1807 C13.6341,15.0043 13.662,14.758 13.6915,14.4415 C13.721,14.1252 13.721,13.745 13.6915,13.3008 C13.6798,13.0576 13.6532,12.8355 13.6119,12.6348 C13.5706,12.4341 13.5293,12.2941 13.4879,12.215 L13.4348,12.1054 C13.2872,11.8986 13.0366,11.7677 12.6825,11.713 C12.6058,11.701 12.6206,11.628 12.7268,11.4941 C12.8271,11.3786 12.9392,11.2872 13.0631,11.2204 C13.3759,11.0622 14.0811,10.9892 15.1786,11.0013 C15.6625,11.0074 16.0608,11.0469 16.3736,11.1199 C16.4914,11.1504 16.5904,11.1914 16.6701,11.2431 C16.7496,11.2949 16.8101,11.3678 16.8515,11.4621 C16.8927,11.5565 16.9239,11.6539 16.9442,11.7542 C16.9648,11.8546 16.9752,11.993 16.9752,12.1694 C16.9752,12.3458 16.9724,12.5132 16.9664,12.6714 C16.9604,12.8294 16.9531,13.0439 16.9442,13.3146 C16.9354,13.5854 16.9311,13.8363 16.9311,14.0675 C16.9311,14.1345 16.9283,14.2621 16.9222,14.4508 C16.9162,14.6394 16.9149,14.7855 16.9177,14.8889 C16.9207,14.9923 16.9311,15.1154 16.9487,15.2585 C16.9664,15.4014 17.0002,15.5201 17.0505,15.6144 C17.1006,15.7087 17.167,15.7832 17.2496,15.838 C17.297,15.8501 17.347,15.8623 17.4002,15.8745 C17.4532,15.8868 17.5298,15.8533 17.6302,15.7741 C17.7307,15.6949 17.8426,15.5901 17.9666,15.4593 C18.0904,15.3286 18.2439,15.1247 18.4267,14.848 C18.6099,14.5711 18.8104,14.2442 19.0287,13.8669 C19.3829,13.2343 19.6984,12.5498 19.9759,11.8137 C19.9995,11.7529 20.029,11.6995 20.0642,11.654 C20.0997,11.6084 20.1321,11.5764 20.1616,11.5583 L20.1968,11.5308 L20.2412,11.508 L20.3563,11.4805 C20.4331,11.4622 20.4921,11.4608 20.5334,11.4759 L23.0825,11.4578 C23.3127,11.4274 23.5014,11.4349 23.6491,11.4805 C23.7965,11.5262 23.8879,11.5763 23.9234,11.6311 L23.9761,11.7221 C24.1119,12.1115 23.6693,13.0057 22.6484,14.4051 C22.5068,14.5998 22.3151,14.8582 22.0731,15.1807 C21.613,15.7892 21.3472,16.1874 21.2765,16.376 C21.1763,16.6256 21.2174,16.872 21.4006,17.1153 C21.5007,17.2431 21.7399,17.4926 22.1175,17.8637 L22.1264,17.8637 L22.1353,17.8729 L22.1441,17.8819 L22.1617,17.9001 C22.9937,18.6971 23.5573,19.3693 23.8522,19.917 Z"></path>
    </g>
</svg>
