<?xml version="1.0" encoding="UTF-8"?>
<svg viewBox="0 0 32 32" version="1.1" xmlns="http://www.w3.org/2000/svg" xmlns:xlink="http://www.w3.org/1999/xlink">
    <g fill="#CDC7C4" fill-rule="nonzero">
        <path d="M16,32 C24.8366,32 32,24.8366 32,16 C32,7.16344 24.8366,0 16,0 C7.16344,0 0,7.16344 0,16 C0,24.8366 7.16344,32 16,32 Z M16.9516,8.8042 L18.6306,8.80689 C18.7762,8.80716 18.8942,8.92529 18.8942,9.0709 L18.8942,11.0474 C18.8942,11.1932 18.776,11.3114 18.6303,11.3114 L17.4993,11.3119 C16.7195,11.3119 16.5769,11.6157 16.5769,12.2143 L16.5769,13.4597 L18.5514,13.4597 C18.6214,13.4597 18.6888,13.4876 18.7382,13.5372 C18.7876,13.5868 18.8155,13.6538 18.8155,13.7239 L18.8147,15.8525 C18.8147,15.9984 18.6966,16.1165 18.5507,16.1165 L16.5769,16.1165 L16.5769,21.4877 C16.5769,21.6334 16.4587,21.7517 16.3129,21.7517 L14.1103,21.7517 C13.9644,21.7517 13.8463,21.6336 13.8463,21.4877 L13.8463,16.1165 L12.1582,16.1165 C12.0124,16.1165 11.8942,15.9984 11.8942,15.8525 L11.8942,13.7239 C11.8942,13.578 12.0123,13.4597 12.1582,13.4597 L13.8463,13.4597 L13.8463,11.9906 C13.8463,10.0549 15.0653,8.8042 16.9516,8.8042 Z"></path>
    </g>
</svg>
